<svg xmlns="http://www.w3.org/2000/svg" viewBox="0 0 64 64">
  <rect width="64" height="64" rx="17" fill="#173c39"/>
  <path d="M15 17.5c7.2 0 12.8 2.1 17 6.2 4.2-4.1 9.8-6.2 17-6.2v29c-7.1 0-12.8 1.9-17 5.8-4.2-3.9-9.9-5.8-17-5.8v-29Z" fill="none" stroke="#f4d8cc" stroke-width="4" stroke-linejoin="round"/>
  <path d="M32 24v28.3" stroke="#f4d8cc" stroke-width="4" stroke-linecap="round"/>
  <path d="M21 26.5c3.1.3 5.6 1.2 7.5 2.7M21 34c3.1.3 5.6 1.2 7.5 2.7M43 26.5c-3.1.3-5.6 1.2-7.5 2.7M43 34c-3.1.3-5.6 1.2-7.5 2.7" fill="none" stroke="#e96b4d" stroke-width="2.5" stroke-linecap="round"/>
</svg>
